<?xml version="1.0" encoding="utf-8"?>
<!-- Generator: Adobe Illustrator 21.1.0, SVG Export Plug-In . SVG Version: 6.00 Build 0)  -->
<svg version="1.1" id="Layer_1" xmlns="http://www.w3.org/2000/svg" xmlns:xlink="http://www.w3.org/1999/xlink" x="0px" y="0px"
	 viewBox="0 0 635 433" style="enable-background:new 0 0 635 433;" xml:space="preserve">
<style type="text/css">
	.st0{fill:#E36325;}
	.st1{fill:#789248;}
</style>
<g>
	<path class="st0" d="M359.4,88.8c0-19.1-15.5-34.6-34.6-34.6c-9.9,0-18.8,4.2-25.1,10.9l0,0l0,0c-6.3-6.7-15.2-10.9-25.1-10.9
		c-19.1,0-34.6,15.5-34.6,34.6c0,9.9,4.2,18.8,10.9,25.1l0,0l44.6,44.6c1.2,1.2,2.8,1.8,4.3,1.8c1.6,0,3.1-0.6,4.3-1.8l44.6-44.6
		l0,0C355.2,107.6,359.4,98.7,359.4,88.8z"/>
	<g>
		<path class="st1" d="M299,238.8c-5.6,0-10.8-2.2-14.8-6.1l-39-39h-79c-18.2,0-33-14.8-33-33V33.4c0-18.2,14.8-33.1,33-33.1h265.3
			c18.2,0,33,14.8,33,33.1v127.2c0,18.2-14.8,33-33,33h-79l-39,39C309.8,236.6,304.5,238.8,299,238.8z M166.3,18.9
			c-8,0-14.5,6.5-14.5,14.5v127.2c0,8,6.5,14.5,14.5,14.5h86.6l44.4,44.4c0.6,0.6,1.2,0.7,1.6,0.7s1.1-0.1,1.6-0.7l44.4-44.4h86.6
			c8,0,14.5-6.5,14.5-14.5V33.4c0-8-6.5-14.5-14.5-14.5H166.3z"/>
	</g>
	<g>
		<path class="st1" d="M325.4,63.9c11.8,0,21.5,9.6,21.5,21.5c0,5.9-2.4,11.5-6.8,15.6L329,111.5l0.3,0.3L299,142.2l-30.4-30.4
			l0.3-0.3L257.8,101c-4.4-4.1-6.8-9.7-6.8-15.6c0-11.8,9.6-21.5,21.5-21.5c5.9,0,11.5,2.4,15.6,6.8l10.5,11.1l0.3-0.3l0.4,0.4
			l10.5-11.1C313.9,66.3,319.4,63.9,325.4,63.9 M325.4,49c-10.4,0-19.8,4.4-26.4,11.4l0,0l0,0c-6.6-7-16-11.4-26.4-11.4
			c-20.1,0-36.3,16.3-36.3,36.3c0,10.4,4.4,19.8,11.4,26.4l0,0l46.8,46.8c1.3,1.3,2.9,1.9,4.5,1.9s3.3-0.6,4.5-1.9l46.8-46.8l0,0
			c7-6.6,11.4-16,11.4-26.4C361.7,65.3,345.4,49,325.4,49L325.4,49z"/>
	</g>
	<path class="st1" d="M86.7,252.6v117.1c0,8.7-2.6,16.9-7.2,24.1l-20.3,35.8c-1.1,1.9-3,3-5.3,3H32.8c-2.3,0-4.1-1.1-5.3-3
		L7.2,393.8C2.7,386.7,0,378.4,0,369.7V252.6c0-3.4,2.6-6,6-6h12.1c3.4,0,6,2.6,6,6v117.1c0,2.3,0.4,4.1,1.1,6l18.1,32.4l18.5-32.4
		c0.4-1.9,0.8-3.8,0.8-6V252.6c0-3.4,3-6,6-6h12.1C84,246.6,86.7,249.2,86.7,252.6z"/>
	<path class="st1" d="M131.3,270.3v56.9h32.8c3.4,0,6,2.6,6,6v12.1c0,3.4-2.6,6-6,6h-32.8v57.3h32.8c3.4,0,6,2.6,6,6v12.1
		c0,3.4-2.6,6-6,6h-44.8c-6.8,0-12.1-5.7-12.1-12.1V258.2c0-6.8,5.3-12.1,12.1-12.1h44.8c3.4,0,6,2.6,6,6v12.1c0,3.4-2.6,6-6,6
		H131.3z"/>
	<path class="st1" d="M252.7,302.7v-12.8c0-10.9-8.7-19.2-19.2-19.2c-10.5,0-19.2,8.3-19.2,19.2v99.8c0,10.5,8.7,19.2,19.2,19.2
		c10.5,0,19.2-8.7,19.2-19.2v-38.8h-13.2c-3.4,0-6-2.6-6-5.7v-12.1c0-3.4,2.6-6,6-6h31.3c3.4,0,6,2.6,6,6v56.5
		c0,23.7-19.6,42.9-43.3,42.9c-23.7,0-43.3-19.2-43.3-42.9v-99.8c0-24.1,19.6-43.3,43.3-43.3c23.7,0,43.3,19.2,43.3,43.3v12.8
		c0,3.4-2.6,6-6,6h-12.1C255.4,308.7,252.7,306.1,252.7,302.7z"/>
	<path class="st0" d="M358.2,270.3v38.4h19.6c23.7,0,43.3,19.2,43.3,43.3v36.9c0,24.1-19.6,43.7-43.3,43.7
		c-24.1,0-43.7-19.6-43.7-43.7v-12.8c0-3.4,2.6-6,6-6h12.1c3.4,0,6,2.6,6,6v12.8c0,10.9,8.7,19.6,19.6,19.6
		c10.5,0,19.2-8.7,19.2-19.6V352c0-10.5-8.7-19.2-19.2-19.2h-37.7c-3.4,0-6-3-6-6v-74.6c0-3.4,2.6-6,6-6h75c3.4,0,6,2.6,6,6v12.1
		c0,3.4-2.6,6-6,6H358.2z"/>
	<path class="st0" d="M527.8,388.9c0,24.1-19.2,43.7-43.3,43.7c-23.7,0-43.3-19.6-43.3-43.3v-0.4v-99.4c0-23.7,19.2-43.3,43.3-43.3
		c23.7,0,43.3,19.2,43.3,42.9V388.9z M503.7,289.5c0-10.5-8.7-19.2-19.2-19.2c-10.5,0-19.2,8.7-19.2,19.2v55.7l37.7-49.7
		C503.7,294,503.7,294,503.7,289.5z M503.7,333.6l-37.3,49.7c-1.1,1.1-1.1,1.1-1.1,5.7c0,10.9,8.7,19.6,19.2,19.6
		c10.5,0,19.2-8.7,19.2-19.6V333.6z"/>
	<path class="st0" d="M635,414.6v12.1c0,3-2.6,6-6,6h-75c-3.4,0-6-3-6-6v-36.9c0-12.1,0-12.1,9-24.1l52.7-69.7
		c1.1-1.5,1.1-1.5,1.1-6.4c0-10.5-8.7-19.2-19.6-19.2c-10.5,0-19.2,8.7-19.2,19.2v13.2c0,3-2.6,6-6,6H554c-3.4,0-6-3-6-6v-13.2
		c0-23.7,19.6-43.3,43.3-43.3c24.1,0,43.7,19.6,43.7,43.3c0,12.4,0,12.4-9,24.1l-52.7,70.1c-1.1,1.1-1.1,1.1-1.1,6v18.8h56.9
		C632.3,408.5,635,411.2,635,414.6z"/>
</g>
</svg>
