<?xml version="1.0" encoding="utf-8"?>
<!-- Generator: Adobe Illustrator 21.1.0, SVG Export Plug-In . SVG Version: 6.00 Build 0)  -->
<svg version="1.1" id="Layer_1" xmlns="http://www.w3.org/2000/svg" xmlns:xlink="http://www.w3.org/1999/xlink" x="0px" y="0px"
	 viewBox="0 0 150 183" style="enable-background:new 0 0 150 183;" xml:space="preserve">
<style type="text/css">
	.st0{fill:#E46422;}
	.st1{fill:none;stroke:#789348;stroke-width:5;stroke-linecap:round;stroke-linejoin:round;stroke-miterlimit:10;}
</style>
<g>
	<g>
		<path class="st0" d="M83.6,56.1c-4.1-8.1-11.5-13.5-20.4-15c-5.6-0.9-10.9-0.2-15.7,2l-8.9-18.9c-1.7-3.7-6.1-5.4-9.8-3.5
			c-3.7,1.7-5.4,6.1-3.5,9.8l0.6,1.1l-8.3-8.3c-3-3-7.6-3-10.5,0c-3,3-3,7.6,0,10.5l8.3,8.3l-1.1-0.6c-3.7-1.7-8.1-0.2-9.8,3.5
			c-1.7,3.7-0.2,8.1,3.5,9.8l17.6,8.3c-3.9,5.7-5.4,12.8-4.3,19.8c1.5,8.9,6.8,16.3,15,20.4l74.2,37c1.1,0.6,2.2,0.7,3.3,0.7
			c1.9,0,3.9-0.7,5.2-2.2l0.4-0.4c2.2-2.2,2.8-5.7,1.5-8.5L83.6,56.1z M86.6,112.1c2.4-3,2.2-7.2-0.6-9.8c-3-3-7.6-3-10.5,0l-3,3
			l-3.5-1.7l3.9-3.9c3-3,3-7.6,0-10.5c-3-3-7.6-3-10.5,0l-6.7,6.7c-0.2,0.2-0.4,0.4-0.6,0.6l-5.4-2.6l10-10c3-3,3-7.6,0-10.5
			c-3-3-7.6-3-10.5,0l-12,12c-0.6-1.3-1.1-2.8-1.5-4.6c-0.7-4.1,0.6-8.3,3.7-11.3l6.8-6.8l0,0l0,0l3.3-3.3c2.4-2.4,5.7-3.9,9.1-3.9
			c0.7,0,1.5,0,2.2,0.2c4.1,0.7,7.6,3.1,9.4,7l27.6,55.1L86.6,112.1z"/>
	</g>
	<g>
		<line class="st1" x1="94.9" y1="5.3" x2="85.3" y2="19.6"/>
		<line class="st1" x1="103.2" y1="44.2" x2="88.8" y2="34.6"/>
		<line class="st1" x1="68.4" y1="20.9" x2="54" y2="11.2"/>
	</g>
	<g>
		<line class="st1" x1="124.8" y1="177.7" x2="119.9" y2="161.1"/>
		<line class="st1" x1="89.5" y1="159.3" x2="106.1" y2="154.4"/>
		<line class="st1" x1="129.7" y1="147.3" x2="146.3" y2="142.4"/>
	</g>
</g>
</svg>
